<?xml version="1.0" standalone="no"?><!DOCTYPE svg PUBLIC "-//W3C//DTD SVG 1.1//EN" "http://www.w3.org/Graphics/SVG/1.1/DTD/svg11.dtd"><svg t="1577880554161" class="icon" viewBox="0 0 1024 1024" version="1.1" xmlns="http://www.w3.org/2000/svg" p-id="2665" xmlns:xlink="http://www.w3.org/1999/xlink" width="200" height="200"><defs><style type="text/css"></style></defs><path d="M734.162334 128.244826 289.815153 128.244826c-89.233324 0-161.571862 72.338538-161.571862 161.581072L128.243291 734.174102c0 89.233324 72.337515 161.580049 161.571862 161.580049l444.348204 0c89.243557 0 161.591305-72.346725 161.591305-161.580049L895.754662 289.825898C895.754662 200.583364 823.405891 128.244826 734.162334 128.244826zM855.358627 734.174102c0 66.924225-54.259788 121.18606-121.18606 121.18606L289.825386 855.360162c-66.925249 0-121.18606-54.260811-121.18606-121.18606L168.639327 289.825898c0-66.923202 54.260811-121.18606 121.18606-121.18606l444.348204 0c66.925249 0 121.18606 54.261834 121.18606 121.18606L855.35965 734.174102z" p-id="2666"></path></svg>